<?xml version="1.0" encoding="utf-8"?>
<!-- Generator: Adobe Illustrator 19.1.0, SVG Export Plug-In . SVG Version: 6.00 Build 0)  -->
<svg version="1.1" id="Capa_1" xmlns="http://www.w3.org/2000/svg" xmlns:xlink="http://www.w3.org/1999/xlink" x="0px" y="0px"
	 viewBox="0 0 447 223" style="enable-background:new 0 0 447 223;" xml:space="preserve">
<style type="text/css">
	.st0{fill:#212121;}
	.st1{fill:#FFFFFF;}
</style>
<path class="st0" d="M164.5,21l-14.8,40.2c0,0-1.2,0.4-4.6-0.5c-3.4-0.9-16.3-6.4-43.4-5.3c0,0-20.2,2.8-15.8,17.8
	c0,0-0.8,4.4,22.4,17.2c0,0,18.5,10,29.9,20.1s14.5,25.1,15.4,31.5s0,21.5-8.5,36.9s-27.1,24.9-30.9,26s-13,7.8-48.4,9.4
	S7.5,200.8,7.5,200.8s-0.4-2.1,0.3-3.4S22.5,161,22.5,161s0.9-1.2,2.5-0.8s15.9,6.2,23.5,7.8c7.6,1.6,10.9,2.9,35.2,2.2
	c10-0.7,18.9-14.2,13.5-21.5s-25.2-18.4-25.2-18.4s-18.4-10-28.2-20.5S31.7,91.3,31.4,82.4s0.4-20.4,4.2-28.8s15.8-23,24.5-28
	c8.9-5.1,24.5-15.3,56-14.2S162.8,18.6,164.5,21z"/>
<path class="st0" d="M214.6,212.7h-50.1l37.3-197.4c0,0,22.2-8.2,76.4-5.2s60.2,39.3,60.2,39.3s15.3,46-40.7,68.7
	c0,0,13.7,14.3,14.3,30l8.5,63.7h-51.8l-6.2-46.8c0,0-2.5-24.5-16-26.7c-13.5-2.2-16.5,0.3-16.5,0.3s-1.5,1.5-2.3,7.2L214.6,212.7z"
	/>
<path class="st1" d="M245.2,54.4c0,0,1.4-4,4.5-3.9c0,0,22.4-1.1,27.1,2.9s15,9.9,6.5,28.2c-5.1,8.9-16.4,13.5-16.4,13.5
	s-7.4,4-29.4,2.2C236.6,92.2,245.2,54.4,245.2,54.4z"/>
<polygon class="st0" points="375.8,67 425.5,67 399.1,213 348.1,213 "/>
<path class="st0" d="M386,9.5h47.9c0,0,3-0.2,2.8,2.2L428,58.6c0,0-0.4,2.5-2,2.8c-1.6,0.3-3.8-3-3.8-3l-38.1-47.1
	C384.1,11.3,383.2,9.6,386,9.5z"/>
</svg>
